<?xml version="1.0" encoding="UTF-8"?>
<svg version="1.1" xmlns="http://www.w3.org/2000/svg" width="1408" height="438">
<path d="M0 0 C464.64 0 929.28 0 1408 0 C1408 144.54 1408 289.08 1408 438 C943.36 438 478.72 438 0 438 C0 293.46 0 148.92 0 0 Z " fill="#FEFEFE" transform="translate(0,0)"/>
<path d="M0 0 C17.16 0 34.32 0 52 0 C52.12375 4.640625 52.2475 9.28125 52.375 14.0625 C53.08729884 43.93352157 53.08729884 43.93352157 68 69 C80.65470741 79.66165102 95.24756934 80.63148511 111 80 C128.80838691 78.38524989 144.63312014 68.39432984 156 55 C159.55926914 50.49201919 162.80250209 45.76827413 166 41 C166.96873047 39.56914062 166.96873047 39.56914062 167.95703125 38.109375 C169.31852884 36.08147696 170.66772072 34.04716084 172 32 C174.64504532 34.41601763 176.41055092 37.04674921 178.29296875 40.0859375 C179.23329956 41.59788696 179.23329956 41.59788696 180.19262695 43.14038086 C180.85093506 44.20780518 181.50924316 45.27522949 182.1875 46.375 C182.85934326 47.45595947 183.53118652 48.53691895 184.22338867 49.65063477 C187.06918897 54.23440718 189.90253769 58.82511377 192.6953125 63.44140625 C193.06374268 64.04871582 193.43217285 64.65602539 193.81176758 65.28173828 C194.7406642 66.81864409 195.66168317 68.3603036 196.58203125 69.90234375 C197.83126895 72.12003282 197.83126895 72.12003282 200 73 C200.25813477 72.29512451 200.51626953 71.59024902 200.78222656 70.86401367 C202.10331539 67.75701827 203.70128305 65.04245513 205.484375 62.17578125 C206.51691406 60.50805664 206.51691406 60.50805664 207.5703125 58.80664062 C208.29671112 57.64182487 209.02327444 56.47711181 209.75 55.3125 C211.16272912 53.038547 212.57343988 50.76334856 213.984375 48.48828125 C214.66177734 47.39725098 215.33917969 46.3062207 216.03710938 45.18212891 C218.73251198 40.81249239 221.37600024 36.41280571 224 32 C227.49259856 33.16419952 227.89162049 33.91503033 229.85546875 36.90234375 C230.39131592 37.70567139 230.92716309 38.50899902 231.47924805 39.33666992 C232.04297119 40.19494385 232.60669434 41.05321777 233.1875 41.9375 C234.36204688 43.68400015 235.53911256 45.42880912 236.71875 47.171875 C237.2859375 48.01041016 237.853125 48.84894531 238.4375 49.71289062 C247.30707177 62.69572631 258.24254949 73.19098358 274.06201172 76.3581543 C277.3676699 76.96757095 280.67581867 77.49849252 284 78 C285.60657471 78.25559692 285.60657471 78.25559692 287.24560547 78.51635742 C291.13839917 79.01782864 294.98413779 79.22101091 298.90234375 79.31640625 C299.54401489 79.33505737 300.18568604 79.3537085 300.84680176 79.3729248 C303.2102475 79.44046781 305.57388685 79.50109404 307.9375 79.5625 C315.8884375 79.7790625 315.8884375 79.7790625 324 80 C324 97.49 324 114.98 324 133 C312.3984375 133.0928125 312.3984375 133.0928125 300.5625 133.1875 C296.9574353 133.22846802 296.9574353 133.22846802 293.27954102 133.27026367 C262.65757825 133.47302003 240.03909062 125.27703117 217.5 103.9375 C209.5771518 95.86834921 203.20291504 86.5072876 199 76 C198.443125 76.89460938 197.88625 77.78921875 197.3125 78.7109375 C181.0635626 104.5664132 159.92544857 123.03469733 130 131 C120.43857923 132.96221966 110.9857272 133.36633865 101.25 133.3125 C100.54722931 133.31034485 99.84445862 133.3081897 99.12039185 133.30596924 C72.60443675 133.17559193 49.71632964 126.49077197 30.39453125 107.4296875 C24.73586761 101.42003262 20.08388279 95.16784582 16 88 C15.56171875 87.23558594 15.1234375 86.47117187 14.671875 85.68359375 C2.84097331 63.55681243 -0.22681171 38.1148175 -0.0625 13.375 C-0.041875 8.96125 -0.02125 4.5475 0 0 Z " fill="#469B5E" transform="translate(24,195)"/>
<path d="M0 0 C1.99670523 -0.00216432 3.99337137 -0.02060986 5.98999023 -0.03930664 C17.81557737 -0.05700079 28.40835936 1.40057037 39.52709961 5.43530273 C40.82224487 5.89936523 40.82224487 5.89936523 42.14355469 6.37280273 C52.4547347 10.16078116 61.04981518 15.1326237 69.46459961 22.18530273 C70.18131836 22.74475586 70.89803711 23.30420898 71.63647461 23.88061523 C88.73642418 37.88802073 97.19305214 58.26643864 102.01904297 79.25683594 C102.47693223 81.23868102 102.97126924 83.21198126 103.46459961 85.18530273 C103.46459961 88.81530273 103.46459961 92.44530273 103.46459961 96.18530273 C86.30459961 96.18530273 69.14459961 96.18530273 51.46459961 96.18530273 C50.80459961 92.88530273 50.14459961 89.58530273 49.46459961 86.18530273 C46.45269325 74.97986911 40.08065962 65.79043248 30.46459961 59.18530273 C15.35914431 51.16166161 -1.64129065 49.32168184 -18.34790039 53.81030273 C-39.0370758 61.04025642 -52.20147656 76.39047877 -62.53540039 95.18530273 C-65.9516303 94.04655943 -66.22858675 93.54018768 -68.03149414 90.59936523 C-68.50248535 89.84220215 -68.97347656 89.08503906 -69.45874023 88.30493164 C-69.95841309 87.4817041 -70.45808594 86.65847656 -70.97290039 85.81030273 C-72.03575742 84.08055502 -73.09958949 82.35140611 -74.16430664 80.62280273 C-74.7136084 79.72819336 -75.26291016 78.83358398 -75.82885742 77.91186523 C-77.52709554 75.19857148 -79.28235485 72.53278031 -81.06274414 69.87280273 C-81.62356689 69.02379395 -82.18438965 68.17478516 -82.76220703 67.30004883 C-83.84546191 65.66369373 -84.94198923 64.03603376 -86.05273438 62.41821289 C-89.62827832 56.94806273 -89.62827832 56.94806273 -89.22290039 53.61889648 C-86.82980988 50.16774976 -84.33510982 46.86124016 -81.66040039 43.62280273 C-81.07959717 42.91752441 -80.49879395 42.21224609 -79.90039062 41.4855957 C-63.12623371 21.3802875 -43.48005276 6.77872961 -17.53540039 1.18530273 C-16.78097656 1.00950684 -16.02655273 0.83371094 -15.24926758 0.65258789 C-10.21047424 -0.2150129 -5.10071788 -0.00061715 0 0 Z " fill="#469B5E" transform="translate(312.535400390625,129.814697265625)"/>
<path d="M0 0 C10.89 0 21.78 0 33 0 C34.93976769 1.93976769 34.88356855 5.35678374 35.34765625 8.00390625 C35.62228431 9.52718642 35.89694404 11.05046089 36.17163086 12.57373047 C36.31664032 13.3863031 36.46164978 14.19887573 36.61105347 15.03607178 C39.37753806 30.51813719 42.33253451 45.95740347 45.4375 61.375 C45.61652863 62.2644632 45.79555725 63.15392639 45.98001099 64.07034302 C46.98264444 69.04771637 47.98940935 74.02423642 49 79 C49.84630887 74.66987989 50.69135325 70.33951496 51.53533936 66.00894165 C51.84478625 64.42132421 52.15439691 62.83373867 52.46417236 61.2461853 C54.41044607 51.26747309 56.33025032 41.28426162 58.2109375 31.29296875 C58.5755158 29.36051337 58.94009909 27.42805894 59.3046875 25.49560547 C59.8402814 22.65573058 60.37441851 19.81561765 60.90429688 16.97467041 C61.39900598 14.32231788 61.89830296 11.6708652 62.3984375 9.01953125 C62.54606537 8.22016647 62.69369324 7.4208017 62.84579468 6.59721375 C63.88638831 1.11361169 63.88638831 1.11361169 65 0 C75.56 0 86.12 0 97 0 C97 38.28 97 76.56 97 116 C90.4 116 83.8 116 77 116 C76.67 87.29 76.34 58.58 76 29 C74.35 37.25 72.7 45.5 71 54 C70.01945959 58.50671456 69.0300319 63.00524817 68 67.5 C65.73357769 77.53680259 63.62803448 87.5961293 61.6484375 97.69335938 C60.51307815 103.48291443 59.30499499 109.24615847 58 115 C52.06 115 46.12 115 40 115 C37.41981117 104.48076863 35.15590937 93.93954842 33.0625 83.3125 C30.938826 72.53922987 28.67065566 61.81809473 26.17578125 51.125 C25.21300833 46.98611258 24.31399544 42.83534404 23.42651367 38.6796875 C23.15868576 37.42655762 22.89085785 36.17342773 22.61491394 34.88232422 C22.41199234 33.93115723 22.20907074 32.97999023 22 32 C21.98969254 33.03760971 21.97938507 34.07521942 21.96876526 35.14427185 C21.87120396 44.90082473 21.76848673 54.65731137 21.66066074 64.41375637 C21.60538761 69.43019298 21.55196074 74.44663537 21.50268555 79.46313477 C21.45510657 84.30014866 21.40276637 89.13708931 21.34705925 93.97401619 C21.32660629 95.8236618 21.30789819 97.67332752 21.29092598 99.52300835 C21.2669468 102.10452454 21.23688382 104.68590097 21.20532227 107.26733398 C21.1995668 108.03985001 21.19381134 108.81236603 21.18788147 109.60829163 C21.11405216 114.88594784 21.11405216 114.88594784 20 116 C13.4 116 6.8 116 0 116 C0 77.72 0 39.44 0 0 Z " fill="#282625" transform="translate(721,114)"/>
<path d="M0 0 C10.07841217 8.55201365 13.56509501 19.44805685 14.625 32.3125 C14.7753091 35.8075885 14.81194773 39.29882727 14.828125 42.796875 C14.83382507 43.77432678 14.83952515 44.75177856 14.84539795 45.7588501 C14.85479033 47.8161106 14.86135881 49.87338577 14.86523438 51.93066406 C14.8749298 55.03998676 14.90600479 58.14864463 14.9375 61.2578125 C15.01169633 75.00301056 14.70405803 87.08874255 7.41796875 99.19140625 C6.38781156 101.28624852 6.38781156 101.28624852 7.26171875 103.35546875 C8.75745075 105.50263704 10.36542387 107.24772299 12.25 109.0625 C12.88164063 109.67609375 13.51328125 110.2896875 14.1640625 110.921875 C14.64617187 111.38078125 15.12828125 111.8396875 15.625 112.3125 C14.49767591 115.69447228 13.48317627 116.55307814 10.8125 118.8125 C10.12542969 119.4003125 9.43835938 119.988125 8.73046875 120.59375 C6.73341956 122.22399424 4.6999438 123.78310322 2.625 125.3125 C1.89023437 124.24708984 1.89023437 124.24708984 1.140625 123.16015625 C-2.8270491 118.28265344 -5.75156054 115.20950123 -12.0703125 114.49609375 C-16.39271623 114.25648808 -20.71657761 114.27531843 -25.04443359 114.31787109 C-36.02007789 114.29257629 -43.47287998 111.21462002 -51.1875 103.5 C-59.31103086 91.66285503 -60.52380505 77.88255263 -60.54296875 63.88671875 C-60.54629715 63.01787552 -60.54962555 62.14903229 -60.55305481 61.25386047 C-60.55808339 59.42779056 -60.56046441 57.60171159 -60.56030273 55.77563477 C-60.56248608 53.01758308 -60.58067699 50.25993417 -60.59960938 47.50195312 C-60.65246195 31.38291963 -60.19585419 14.41010968 -48.40625 2 C-35.86888474 -8.41565729 -13.45319642 -9.31570394 0 0 Z " fill="#252322" transform="translate(514.375,116.6875)"/>
<path d="M0 0 C3.49259856 1.16419952 3.89162049 1.91503033 5.85546875 4.90234375 C6.39131592 5.70567139 6.92716309 6.50899902 7.47924805 7.33666992 C8.04297119 8.19494385 8.60669434 9.05321777 9.1875 9.9375 C10.36204688 11.68400015 11.53911256 13.42880912 12.71875 15.171875 C13.2859375 16.01041016 13.853125 16.84894531 14.4375 17.71289062 C23.30707177 30.69572631 34.24254949 41.19098358 50.06201172 44.3581543 C53.3676699 44.96757095 56.67581867 45.49849252 60 46 C61.0710498 46.17039795 62.14209961 46.3407959 63.24560547 46.51635742 C67.13839917 47.01782864 70.98413779 47.22101091 74.90234375 47.31640625 C75.54401489 47.33505737 76.18568604 47.3537085 76.84680176 47.3729248 C79.2102475 47.44046781 81.57388685 47.50109404 83.9375 47.5625 C91.8884375 47.7790625 91.8884375 47.7790625 100 48 C100 65.49 100 82.98 100 101 C92.265625 101.061875 84.53125 101.12375 76.5625 101.1875 C72.9574353 101.22846802 72.9574353 101.22846802 69.27954102 101.27026367 C38.65757825 101.47302003 16.03909062 93.27703117 -6.5 71.9375 C-13.24546391 65.06765165 -26 51.19207953 -26 41 C-25.34 41 -24.68 41 -24 41 C-23.74186523 40.29512451 -23.48373047 39.59024902 -23.21777344 38.86401367 C-21.89668461 35.75701827 -20.29871695 33.04245513 -18.515625 30.17578125 C-17.82726562 29.06396484 -17.13890625 27.95214844 -16.4296875 26.80664062 C-15.70328888 25.64182487 -14.97672556 24.47711181 -14.25 23.3125 C-12.83727088 21.038547 -11.42656012 18.76334856 -10.015625 16.48828125 C-9.33822266 15.39725098 -8.66082031 14.3062207 -7.96289062 13.18212891 C-5.26748802 8.81249239 -2.62399976 4.41280571 0 0 Z " fill="#4AA3E1" transform="translate(248,227)"/>
<path d="M0 0 C30.74606554 0 59.67535442 7.01915998 83 28 C83.76441406 28.62261719 84.52882813 29.24523437 85.31640625 29.88671875 C93.52157673 36.69344278 103.82168223 47.65602033 107 58 C106.5846809 62.85096135 105.12338995 65.86975381 102.4296875 69.88671875 C102.0703714 70.42923782 101.7110553 70.9717569 101.34085083 71.53071594 C100.19511903 73.25624528 99.03562978 74.97196527 97.875 76.6875 C97.11882049 77.81901303 96.36360403 78.95117028 95.609375 80.08398438 C94.12786531 82.3086614 92.6427523 84.53075413 91.15527344 86.75146484 C88.03346018 91.45681682 85.00657623 96.22042278 82 101 C78.77194519 97.97369862 75.98874207 94.79070243 73.25 91.3125 C52.69430811 65.40616921 33.3680908 57.17101135 0 53 C0 35.51 0 18.02 0 0 Z " fill="#4BA3E1" transform="translate(115,125)"/>
<path d="M0 0 C1.16781006 0.00523682 2.33562012 0.01047363 3.53881836 0.01586914 C4.79887695 0.0190918 6.05893555 0.02231445 7.35717773 0.02563477 C8.6976732 0.03399136 10.03816799 0.04245632 11.37866211 0.05102539 C12.72306153 0.05603879 14.06746271 0.06060197 15.41186523 0.06469727 C18.71334151 0.07653051 22.01473014 0.09301568 25.31616211 0.11352539 C25.48045212 0.77512665 25.64474213 1.43672791 25.81401062 2.11837769 C27.38461029 8.44133026 28.95764337 14.76367225 30.53322124 21.08538628 C31.34260185 24.33321988 32.15086286 27.58132208 32.95751953 30.82983398 C37.63840112 49.67997041 37.63840112 49.67997041 42.72476196 68.42337036 C44.26501859 73.87190445 45.62451325 79.34314568 46.87866211 84.86352539 C48.54502989 92.06938622 50.40359969 99.14341523 52.61694336 106.20336914 C53.31616211 109.11352539 53.31616211 109.11352539 53.31616211 115.11352539 C45.72616211 115.11352539 38.13616211 115.11352539 30.31616211 115.11352539 C29.65616211 111.89602539 28.99616211 108.67852539 28.31616211 105.36352539 C28.10733398 104.35580078 27.89850586 103.34807617 27.68334961 102.30981445 C27.52092773 101.50769531 27.35850586 100.70557617 27.19116211 99.87915039 C26.93979492 98.65373535 26.93979492 98.65373535 26.68334961 97.40356445 C26.31616211 95.11352539 26.31616211 95.11352539 26.31616211 91.11352539 C16.08616211 91.11352539 5.85616211 91.11352539 -4.68383789 91.11352539 C-5.01383789 94.74352539 -5.34383789 98.37352539 -5.68383789 102.11352539 C-6.52784163 106.49972099 -7.61064704 110.77410151 -8.68383789 115.11352539 C-16.27383789 115.11352539 -23.86383789 115.11352539 -31.68383789 115.11352539 C-31.0867333 110.33668864 -30.55442258 106.08981317 -29.44946289 101.49633789 C-29.08691406 99.98233398 -29.08691406 99.98233398 -28.71704102 98.43774414 C-28.45858398 97.38200195 -28.20012695 96.32625977 -27.93383789 95.23852539 C-27.66506836 94.12864258 -27.39629883 93.01875977 -27.11938477 91.87524414 C-25.4086746 84.87872267 -23.56525864 77.93477901 -21.58154297 71.01147461 C-19.73975638 64.50612876 -18.17501609 57.94286704 -16.62133789 51.36352539 C-14.8403458 43.82395493 -12.96875185 36.3666014 -10.75805664 28.94165039 C-8.90688238 22.34473847 -7.31534166 15.67991901 -5.70141602 9.02148438 C-5.45456055 8.0141626 -5.20770508 7.00684082 -4.95336914 5.96899414 C-4.73269775 5.05786865 -4.51202637 4.14674316 -4.28466797 3.20800781 C-3.40095161 0.12738911 -3.30043607 0.13960727 0 0 Z " fill="#252322" transform="translate(885.683837890625,113.886474609375)"/>
<path d="M0 0 C8.91 0 17.82 0 27 0 C28.03298603 3.93793153 29.06334792 7.8764143 30.08837891 11.81640625 C30.59937536 13.77669837 31.11404422 15.7360321 31.62890625 17.6953125 C33.84295532 26.18596496 35.8658171 34.70977017 37.8125 43.265625 C41.35435503 58.79772866 45.34978354 74.20825955 49.34814453 89.62792969 C50.28562562 93.24831806 51.21733748 96.87015371 52.1484375 100.4921875 C52.43584808 101.5930368 52.72325867 102.69388611 53.01937866 103.82809448 C53.28030304 104.84501373 53.54122742 105.86193298 53.81005859 106.90966797 C54.15597549 108.24431595 54.15597549 108.24431595 54.50888062 109.60592651 C55 112 55 112 55 116 C47.41 116 39.82 116 32 116 C31.34 112.596875 30.68 109.19375 30 105.6875 C29.79117188 104.61846436 29.58234375 103.54942871 29.3671875 102.44799805 C29.20476563 101.60277588 29.04234375 100.75755371 28.875 99.88671875 C28.62363281 98.59060669 28.62363281 98.59060669 28.3671875 97.26831055 C28 95 28 95 28 92 C18.43 92 8.86 92 -1 92 C-2.27365872 98.77557074 -2.27365872 98.77557074 -3.54272461 105.55200195 C-3.70264893 106.39722412 -3.86257324 107.24244629 -4.02734375 108.11328125 C-4.18968506 108.97735596 -4.35202637 109.84143066 -4.51928711 110.73168945 C-5 113 -5 113 -6 116 C-13.59 116 -21.18 116 -29 116 C-23.22603964 90.39312421 -17.03808985 64.90331339 -10.57749557 39.4621315 C-10.00018788 37.18824001 -9.42375501 34.91412807 -8.84744263 32.63998413 C-7.92889613 29.01717001 -7.00743194 25.3951102 -6.083498 21.77366638 C-5.74009113 20.42692782 -5.39731663 19.08002783 -5.05521965 17.73295593 C-4.58200107 15.87112846 -4.10552169 14.01013072 -3.62890625 12.14916992 C-3.36150635 11.1019426 -3.09410645 10.05471527 -2.81860352 8.97575378 C-1.98682495 5.95210658 -0.99168029 2.97504087 0 0 Z " fill="#262423" transform="translate(560,113)"/>
<path d="M0 0 C7.26 0 14.52 0 22 0 C22 14.52 22 29.04 22 44 C30.25 44 38.5 44 47 44 C47 29.48 47 14.96 47 0 C54.26 0 61.52 0 69 0 C69 38.28 69 76.56 69 116 C61.74 116 54.48 116 47 116 C47 98.84 47 81.68 47 64 C38.75 64 30.5 64 22 64 C22 81.16 22 98.32 22 116 C14.74 116 7.48 116 0 116 C0 77.72 0 39.44 0 0 Z " fill="#282625" transform="translate(1313,114)"/>
<path d="M0 0 C8.91 0 17.82 0 27 0 C30.36734694 10.10204082 30.36734694 10.10204082 31.2890625 14.3359375 C31.61100586 15.78129883 31.61100586 15.78129883 31.93945312 17.25585938 C32.16568359 18.28517578 32.39191406 19.31449219 32.625 20.375 C35.04598493 31.14118881 37.7175799 41.82282341 40.5 52.5 C43.52259272 64.10696991 46.39204781 75.73019952 49.02978516 87.43212891 C50.61205609 94.42772878 52.36775135 101.34553521 54.3359375 108.2421875 C55 111 55 111 55 115 C47.74 115 40.48 115 33 115 C32.175 111.596875 31.35 108.19375 30.5 104.6875 C30.23896484 103.61846436 29.97792969 102.54942871 29.70898438 101.44799805 C29.40444336 100.18016479 29.40444336 100.18016479 29.09375 98.88671875 C28.88427734 98.02264404 28.67480469 97.15856934 28.45898438 96.26831055 C28 94 28 94 28 91 C18.43 91 8.86 91 -1 91 C-1.57393627 95.90460482 -1.57393627 95.90460482 -2.13623047 100.81054688 C-2.21244629 101.44025391 -2.28866211 102.06996094 -2.3671875 102.71875 C-2.47716064 103.66137695 -2.47716064 103.66137695 -2.58935547 104.62304688 C-3.19389023 108.12230398 -4.1387334 111.55493361 -5 115 C-12.26 115 -19.52 115 -27 115 C-26.34134374 108.41343743 -25.62203915 102.67501393 -23.92578125 96.40625 C-23.72164108 95.62588882 -23.51750092 94.84552765 -23.30717468 94.04151917 C-22.87285039 92.38307331 -22.43535431 90.72545523 -21.99487305 89.06863403 C-20.83012982 84.68423005 -19.69094089 80.29319344 -18.55078125 75.90234375 C-18.32528595 75.03572617 -18.09979065 74.16910858 -17.86746216 73.27622986 C-16.12788458 66.56370935 -14.51623183 59.82912659 -13 53.0625 C-9.00901538 35.29350425 -4.45393431 17.65729688 0 0 Z " fill="#252322" transform="translate(1251,114)"/>
<path d="M0 0 C7.26 0 14.52 0 22 0 C22 14.52 22 29.04 22 44 C30.25 44 38.5 44 47 44 C47 29.48 47 14.96 47 0 C53.93 0 60.86 0 68 0 C68 37.95 68 75.9 68 115 C61.07 115 54.14 115 47 115 C47 98.17 47 81.34 47 64 C38.42 64 29.84 64 21 64 C21 80.83 21 97.66 21 115 C14.07 115 7.14 115 0 115 C0 77.05 0 39.1 0 0 Z " fill="#242221" transform="translate(1148,114)"/>
<path d="M0 0 C6.12595142 3.74819207 9.97340298 9.11687317 12 16 C12.38570611 20.75704199 12.23465531 25.2130316 12 30 C5.4 30 -1.2 30 -8 30 C-8.42317708 27.265625 -8.84635417 24.53125 -9.26953125 21.796875 C-10.04587765 18.82434013 -10.89763932 17.21944129 -13 15 C-16.71014101 13.76328633 -20.14438758 13.43631397 -24 14 C-26.8100346 15.79363911 -28.50940468 17.01880935 -30 20 C-30.12327929 22.10148182 -30.17558006 24.20743907 -30.1875 26.3125 C-30.20876953 28.00826172 -30.20876953 28.00826172 -30.23046875 29.73828125 C-29.99920522 33.01124816 -29.60174746 35.14515043 -28 38 C-26.2097974 39.04480889 -26.2097974 39.04480889 -24 40 C-23.13995361 40.40178467 -22.27990723 40.80356934 -21.39379883 41.2175293 C-20.42466553 41.66523682 -19.45553223 42.11294434 -18.45703125 42.57421875 C-16.24215209 43.61190359 -14.02730973 44.64966697 -11.8125 45.6875 C-10.71357422 46.19216797 -9.61464844 46.69683594 -8.48242188 47.21679688 C1.68980366 52.01478757 10.20664603 56.87166502 14.96484375 67.421875 C18.04358123 78.06385058 17.23976381 90.19603941 12 100 C11.61070312 100.73605469 11.22140625 101.47210938 10.8203125 102.23046875 C6.61037378 108.86921828 -0.47196493 112.36272714 -7.88354492 114.55786133 C-11.93542479 115.40432049 -16.06299292 115.22707015 -20.1875 115.25 C-21.09564453 115.270625 -22.00378906 115.29125 -22.93945312 115.3125 C-32.26471574 115.36590165 -39.42110288 113.43161259 -46.27734375 106.95703125 C-48.95547988 103.91452286 -50.56532025 100.76792208 -52 97 C-52.4125 95.948125 -52.825 94.89625 -53.25 93.8125 C-54.36000531 88.169973 -54.11848013 82.74628647 -54 77 C-46.74 77 -39.48 77 -32 77 C-31.83723958 80.22265625 -31.67447917 83.4453125 -31.51171875 86.66796875 C-30.96828384 90.20651817 -30.13044684 92.15097014 -28 95 C-24.65951897 97.22698735 -23.46714419 97.2711921 -19.5625 97.25 C-18.61503906 97.25515625 -17.66757812 97.2603125 -16.69140625 97.265625 C-13.91226158 96.99134077 -12.31204255 96.54307052 -10 95 C-6.99801917 89.74653355 -6.11443891 85.00687824 -7 79 C-8.91397482 73.35377429 -11.23433902 71.58364498 -16.5 68.875 C-20.67374148 66.94826672 -24.910469 65.2437401 -29.1875 63.5625 C-37.94652461 59.97874222 -46.79462218 53.68729804 -50.99609375 44.921875 C-54.95441302 34.69463861 -55.49006764 24.79345647 -51.25390625 14.53515625 C-47.04699028 6.02958471 -41.04743703 0.51904652 -32.26171875 -3.140625 C-21.94726864 -5.85820467 -9.37037931 -5.1787934 0 0 Z " fill="#262423" transform="translate(670,116)"/>
<path d="M0 0 C5.75340356 4.83238054 9.16465122 10.94202459 10.5625 18.3125 C10.5625 21.6125 10.5625 24.9125 10.5625 28.3125 C3.6325 28.3125 -3.2975 28.3125 -10.4375 28.3125 C-10.9325 23.8575 -10.9325 23.8575 -11.4375 19.3125 C-13.88423522 14.58550042 -13.88423522 14.58550042 -18.4375 12.3125 C-24.25579706 11.77674427 -24.25579706 11.77674427 -29.375 14.1875 C-33.26514723 18.19553048 -32.77534319 21.94380942 -32.7109375 27.328125 C-32.33877272 31.39003773 -31.28000919 33.39710596 -28.4375 36.3125 C-21.74686535 40.42032048 -14.61396459 43.7003112 -7.53125 47.0703125 C-0.36436194 50.57499952 6.28989463 54.37226878 10.4375 61.4375 C11.02144531 62.40042969 11.02144531 62.40042969 11.6171875 63.3828125 C15.92543802 72.17734043 14.24489401 85.61692146 11.59765625 94.69140625 C8.62007281 102.23087223 3.7109819 106.74530883 -3.4375 110.3125 C-9.92138645 113.06791556 -15.86759894 113.830252 -22.875 113.75 C-24.26259521 113.73864014 -24.26259521 113.73864014 -25.67822266 113.72705078 C-32.24161844 113.56815606 -37.81365836 112.95212332 -43.4375 109.3125 C-44.0975 108.88839844 -44.7575 108.46429688 -45.4375 108.02734375 C-50.34272857 104.35864155 -52.4390695 99.99647821 -54.4375 94.3125 C-54.85 93.219375 -55.2625 92.12625 -55.6875 91 C-56.76234984 85.7153216 -56.55860976 80.70188439 -56.4375 75.3125 C-49.1775 75.3125 -41.9175 75.3125 -34.4375 75.3125 C-34.30729167 78.79557292 -34.17708333 82.27864583 -34.046875 85.76171875 C-33.36012196 89.76337589 -32.25969688 91.45316895 -29.4375 94.3125 C-25.51463554 96.27393223 -20.72420656 95.65940111 -16.4375 95.3125 C-13.41427389 94.07853016 -12.06155043 93.30298574 -10.33984375 90.5703125 C-8.13054877 85.04229304 -8.65627936 78.42179573 -10.6875 72.9375 C-14.98620117 68.83419434 -20.07106071 66.76623375 -25.4375 64.3125 C-48.16182455 53.70224552 -48.16182455 53.70224552 -54.4375 41.3125 C-55.7950464 37.23986081 -55.66132805 33.45352786 -55.6875 29.1875 C-55.708125 28.37023437 -55.72875 27.55296875 -55.75 26.7109375 C-55.81492519 16.45275806 -52.60256817 8.67778963 -45.4375 1.3125 C-33.24326661 -8.53392421 -12.95220522 -8.88497068 0 0 Z " fill="#262423" transform="translate(1127.4375,117.6875)"/>
<path d="M0 0 C7.29645219 4.16734127 12.08417494 10.36756207 14.46875 18.42578125 C16.56678062 29.59375963 15.41561655 41.36056167 9.7265625 51.31640625 C5.35301105 57.08154226 -1.30922066 59.89083397 -8.0234375 62.12890625 C-19.57296782 63.18616337 -28.60289341 62.16748667 -37.953125 54.55859375 C-45.19903077 47.09639229 -46.61844841 37.30725036 -46.49609375 27.33862305 C-46.24805104 21.32426146 -45.09352874 16.3700589 -42.0234375 11.12890625 C-41.59933594 10.401875 -41.17523437 9.67484375 -40.73828125 8.92578125 C-32.03586346 -4.16420652 -13.60335815 -6.52870199 0 0 Z " fill="#272625" transform="translate(607.0234375,262.87109375)"/>
<path d="M0 0 C7.67339246 5.11559497 12.55407768 12.15373468 15 21 C16.02204285 32.94595541 14.77582227 43.15843959 7.734375 53.0234375 C2.40130006 59.1012211 -4.71046589 61.60503219 -12.6484375 62.3359375 C-23.10522276 62.44554741 -30.59628685 60.9992076 -38.4296875 53.83984375 C-46.28551177 44.63563174 -46.68751753 33.54463888 -46.17480469 22.02636719 C-45.47712816 13.93877618 -41.01085598 7.24738033 -35 2 C-24.71774053 -4.52091823 -11.0400585 -5.41442869 0 0 Z " fill="#272524" transform="translate(1261,263)"/>
<path d="M0 0 C7.26 0 14.52 0 22 0 C22 32.01 22 64.02 22 97 C34.54 97 47.08 97 60 97 C60 102.94 60 108.88 60 115 C40.2 115 20.4 115 0 115 C0 77.05 0 39.1 0 0 Z " fill="#232120" transform="translate(947,114)"/>
<path d="M0 0 C38.01738636 0 38.01738636 0 46.05078125 7.7109375 C53.63449514 16.61686203 53.6397934 27.87216473 53 39 C51.37707118 48.14090792 47.38689501 54.45982874 40 60 C29.52359423 66.5477536 7.83315475 63 0 63 C0 42.21 0 21.42 0 0 Z " fill="#272524" transform="translate(859,261)"/>
<path d="M0 0 C17.16 0 34.32 0 52 0 C52 17.49 52 34.98 52 53 C34.84 53 17.68 53 0 53 C0 35.51 0 18.02 0 0 Z " fill="#4CA4E1" transform="translate(365,275)"/>
<path d="M0 0 C16.83 0 33.66 0 51 0 C51 17.49 51 34.98 51 53 C34.17 53 17.34 53 0 53 C0 35.51 0 18.02 0 0 Z " fill="#459B5E" transform="translate(25,125)"/>
<path d="M0 0 C7.59 0 15.18 0 23 0 C23 38.28 23 76.56 23 116 C15.41 116 7.82 116 0 116 C0 77.72 0 39.44 0 0 Z " fill="#292726" transform="translate(1014,114)"/>
<path d="M0 0 C7.26 0 14.52 0 22 0 C22 37.95 22 75.9 22 115 C14.74 115 7.48 115 0 115 C0 77.05 0 39.1 0 0 Z " fill="#232120" transform="translate(692,114)"/>
<path d="M0 0 C4.83094662 1.57934793 6.7156603 3.60829644 9.12734985 8.03430176 C10.51615303 11.16266651 10.92883342 14.33182095 11.23046875 17.703125 C11.30533005 18.43307678 11.38019135 19.16302856 11.45732117 19.9151001 C12.21424146 28.00752276 12.33702051 36.10814833 12.31567383 44.23095703 C12.31248429 46.76247165 12.33620464 49.29284466 12.36132812 51.82421875 C12.45299242 75.12624637 12.45299242 75.12624637 6.5 82.75 C2.44142441 86.40271803 -1.32472497 86.3533341 -6.55859375 86.26953125 C-10.19606659 85.86795425 -11.68153912 84.81025561 -14 82 C-20.08793646 68.92423462 -19.19794728 53.78943462 -19.25 39.6875 C-19.25526703 38.95492981 -19.26053406 38.22235962 -19.26596069 37.46759033 C-19.41394904 10.79166641 -19.41394904 10.79166641 -11.3125 2.125 C-7.23627645 -0.48993586 -4.69680395 -0.8360311 0 0 Z " fill="#FCFBFB" transform="translate(495,128)"/>
<path d="M0 0 C13 0 13 0 16.4375 3.41796875 C17.34013568 4.98080357 18.19218651 6.57360991 19 8.1875 C19.97286676 9.91728104 20.94687028 11.64642313 21.921875 13.375 C22.41494141 14.28765625 22.90800781 15.2003125 23.41601562 16.140625 C25.58026877 20.04748889 27.93889194 23.81997064 30.31347656 27.6015625 C32.89814335 31.72034567 35.44532961 35.86254469 38 40 C38.33 26.8 38.66 13.6 39 0 C42.96 0 46.92 0 51 0 C51 20.79 51 41.58 51 63 C46.38 63 41.76 63 37 63 C33.75223689 59.42351593 32.22817716 57.21102569 30.25 53 C29.18962361 50.983257 28.12710237 48.96764037 27.0625 46.953125 C26.55332031 45.94830078 26.04414062 44.94347656 25.51953125 43.90820312 C23.32369919 39.70564021 20.81634529 35.73335725 18.25 31.75 C14.11681818 25.23363636 14.11681818 25.23363636 13 23 C12.67 36.2 12.34 49.4 12 63 C8.04 63 4.08 63 0 63 C0 42.21 0 21.42 0 0 Z " fill="#2A2827" transform="translate(763,261)"/>
<path d="M0 0 C12 0 12 0 14.578125 2.1484375 C15.12984375 3.21320313 15.6815625 4.27796875 16.25 5.375 C16.94939374 6.63676621 17.65146986 7.89704742 18.35546875 9.15625 C18.94787354 10.26419922 18.94787354 10.26419922 19.55224609 11.39453125 C21.92975832 15.6732514 24.54416772 19.80442064 27.13012695 23.95898438 C30.44266614 29.2920295 33.71737335 34.64849101 37 40 C37.33 26.8 37.66 13.6 38 0 C41.96 0 45.92 0 50 0 C50 20.79 50 41.58 50 63 C45.71 63 41.42 63 37 63 C33.74650403 59.5752674 32.18419247 57.09536088 30 53 C29.05052816 51.40614598 28.09135286 49.81805096 27.125 48.234375 C25.05105278 44.83467065 22.99467242 41.42624041 20.96484375 38 C17.99388511 32.98968767 14.99690244 27.9948374 12 23 C11.67 36.2 11.34 49.4 11 63 C7.37 63 3.74 63 0 63 C0 42.21 0 21.42 0 0 Z " fill="#262423" transform="translate(1322,261)"/>
<path d="M0 0 C3.96 0 7.92 0 12 0 C15.33011281 7.88008468 18.48147297 15.78891551 21.42578125 23.8203125 C21.81823532 24.88619598 22.21068939 25.95207947 22.61503601 27.05026245 C23.43386464 29.27652079 24.25138388 31.50326114 25.06762695 33.73046875 C26.3226421 37.15265557 27.58394763 40.57248091 28.84570312 43.9921875 C29.64360611 46.16392405 30.44114562 48.33579418 31.23828125 50.5078125 C31.61632401 51.53166046 31.99436676 52.55550842 32.38386536 53.61038208 C32.72810043 54.55251556 33.07233551 55.49464905 33.42700195 56.46533203 C33.731689 57.29517609 34.03637604 58.12502014 34.35029602 58.98001099 C35 61 35 61 35 63 C30.71 63 26.42 63 22 63 C18 51.25 18 51.25 18 49 C10.08 49 2.16 49 -6 49 C-6.66 51.97 -7.32 54.94 -8 58 C-8.99 60.475 -8.99 60.475 -10 63 C-13.96 63 -17.92 63 -22 63 C-21.31572655 57.10857249 -19.30851941 51.78166349 -17.32421875 46.23046875 C-16.95778763 45.19489334 -16.59135651 44.15931793 -16.21382141 43.09236145 C-15.43865727 40.90536432 -14.66102893 38.71923924 -13.88110352 36.53393555 C-12.696145 33.21173748 -11.52033357 29.88640868 -10.34570312 26.56054688 C-9.58908733 24.42949369 -8.83194287 22.29862811 -8.07421875 20.16796875 C-7.55211067 18.69096748 -7.55211067 18.69096748 -7.01945496 17.18412781 C-4.92249438 11.32604927 -2.59611046 5.65522846 0 0 Z " fill="#282625" transform="translate(980,261)"/>
<path d="M0 0 C4.29 0 8.58 0 13 0 C13.01981934 1.3725293 13.03963867 2.74505859 13.06005859 4.15917969 C13.13612345 9.25083786 13.22483979 14.3422106 13.31738281 19.43359375 C13.35566886 21.63731247 13.39052237 23.84109361 13.421875 26.04492188 C13.4675333 29.21246652 13.52552702 32.37958162 13.5859375 35.546875 C13.59748871 36.53242371 13.60903992 37.51797241 13.62094116 38.53338623 C13.64081085 39.4540387 13.66068054 40.37469116 13.68115234 41.32324219 C13.69447601 42.1315448 13.70779968 42.93984741 13.7215271 43.77264404 C14.03568464 46.28542238 14.64134149 47.86735466 16 50 C19.34048103 52.22698735 20.53285581 52.2711921 24.4375 52.25 C25.38496094 52.25515625 26.33242188 52.2603125 27.30859375 52.265625 C30.11313014 51.98883476 31.69270366 51.60242998 34 50 C35.80892556 47.04106223 36.26209828 44.76603794 36.31884766 41.32324219 C36.33871735 40.40258972 36.35858704 39.48193726 36.37905884 38.53338623 C36.39638565 37.05506317 36.39638565 37.05506317 36.4140625 35.546875 C36.43342865 34.53151672 36.4527948 33.51615845 36.4727478 32.47003174 C36.53248099 29.23010635 36.57890428 25.99014532 36.625 22.75 C36.66318551 20.55206792 36.70223758 18.35415072 36.7421875 16.15625 C36.83817755 10.77095426 36.92223205 5.38558846 37 0 C41.29 0 45.58 0 50 0 C50.07443257 6.54701277 50.12873601 13.09377648 50.16479492 19.64111328 C50.17983512 21.86609185 50.20027246 24.09104101 50.22631836 26.31591797 C50.26291135 29.52318606 50.2797745 32.73006045 50.29296875 35.9375 C50.30845261 36.92427734 50.32393646 37.91105469 50.33988953 38.92773438 C50.34165241 46.24376571 49.50190397 52.03721898 44.625 57.8125 C36.19444812 64.8379599 27.66750721 64.75779844 17.11083984 64.23095703 C11.32050817 63.59740929 7.68650448 60.55677337 3.5625 56.75 C-0.35710604 49.85149336 -0.28050788 42.01786365 -0.1953125 34.27734375 C-0.1924826 33.29125626 -0.18965271 32.30516876 -0.18673706 31.28919983 C-0.17563505 28.17183763 -0.15054945 25.05477383 -0.125 21.9375 C-0.11495729 19.81055105 -0.10583371 17.68359756 -0.09765625 15.55664062 C-0.07572848 10.3709806 -0.04126846 5.18554071 0 0 Z " fill="#282726" transform="translate(668,261)"/>
<path d="M0 0 C14.19 0 28.38 0 43 0 C43 3.63 43 7.26 43 11 C33.1 11 23.2 11 13 11 C13 15.95 13 20.9 13 26 C21.58 26 30.16 26 39 26 C39 29.3 39 32.6 39 36 C30.42 36 21.84 36 13 36 C13 44.91 13 53.82 13 63 C8.71 63 4.42 63 0 63 C0 42.21 0 21.42 0 0 Z " fill="#262423" transform="translate(472,261)"/>
<path d="M0 0 C5.54275705 2.72098983 8.95957605 6.39894013 11.25 12.125 C12.80222348 20.14482134 13.08657505 28.66694721 9 36 C5.5071487 39.92223255 2.0951455 42.67503636 -3.26953125 43.23828125 C-9.08127736 43.4079021 -12.45980104 42.99969908 -17 39 C-23.24763628 32.40527282 -23.45870432 25.36824488 -23.3046875 16.640625 C-22.8247296 10.90574339 -21.49554403 7.38397853 -17.33984375 3.4140625 C-11.99377173 -0.55981445 -6.47801493 -1.07140216 0 0 Z " fill="#FCFCFB" transform="translate(1251,271)"/>
<path d="M0 0 C5.22871936 2.12136614 7.66777465 5.44249249 9.89453125 10.54296875 C12.05170014 17.99319093 11.6490205 26.26788573 8.859375 33.515625 C6.30556959 37.93806852 2.53279554 40.85885982 -2.26171875 42.45703125 C-7.2303219 42.97869182 -11.11690854 43.02943635 -15.63671875 40.76953125 C-21.49472311 35.60890836 -23.87152311 31.08617047 -24.51953125 23.3984375 C-24.75602655 16.57948965 -24.54756977 10.98421108 -20.26171875 5.45703125 C-14.22102213 -0.69153495 -8.37186396 -2.00982572 0 0 Z " fill="#FCFCFC" transform="translate(598.26171875,271.54296875)"/>
<path d="M0 0 C16.5 0 33 0 50 0 C50 3.63 50 7.26 50 11 C43.73 11 37.46 11 31 11 C31 28.16 31 45.32 31 63 C26.71 63 22.42 63 18 63 C18 45.84 18 28.68 18 11 C12.06 11 6.12 11 0 11 C0 7.37 0 3.74 0 0 Z " fill="#292726" transform="translate(1061,261)"/>
<path d="M0 0 C16 0 16 0 22 3 C27.94286579 10.70966372 27.6355067 18.69335747 27 28 C26.47628775 31.31092658 25.91761099 34.22609731 24 37 C18 41 18 41 0 41 C0 27.47 0 13.94 0 0 Z " fill="#FCFCFC" transform="translate(872,272)"/>
<path d="M0 0 C4.29 0 8.58 0 13 0 C13 20.79 13 41.58 13 63 C8.71 63 4.42 63 0 63 C0 42.21 0 21.42 0 0 Z " fill="#272625" transform="translate(1156,261)"/>
<path d="M0 0 C2.77687488 2.77687488 2.95888004 5.8404944 3.65625 9.5703125 C3.80404907 10.32537079 3.95184814 11.08042908 4.10412598 11.85836792 C4.57668784 14.27923362 5.03876499 16.70195311 5.5 19.125 C5.96314578 21.52621044 6.42850135 23.92697083 6.89587402 26.32736206 C7.18595461 27.82055763 7.47332107 29.31428408 7.75744629 30.80862427 C8.42864912 34.29518381 9.17869508 37.71930408 10.10351562 41.14794922 C11 45 11 45 11 51 C4.07 51 -2.86 51 -10 51 C-8.87380029 41.99040229 -8.87380029 41.99040229 -8.203125 38.65234375 C-7.97544434 37.51297363 -7.97544434 37.51297363 -7.74316406 36.35058594 C-7.58041992 35.55426758 -7.41767578 34.75794922 -7.25 33.9375 C-7.07952148 33.09348633 -6.90904297 32.24947266 -6.73339844 31.37988281 C-4.59856328 20.89665828 -2.30329191 10.44727712 0 0 Z " fill="#F8F8F8" transform="translate(896,135)"/>
<path d="M0 0 C0.66 0 1.32 0 2 0 C3.29152748 6.13608211 4.57209756 12.27437858 5.84521484 18.41430664 C6.27924006 20.50109082 6.71573521 22.58736292 7.15478516 24.6730957 C7.78684181 27.67787298 8.40987948 30.68440334 9.03125 33.69140625 C9.22811401 34.61772354 9.42497803 35.54404083 9.62780762 36.49842834 C9.89808777 37.8190049 9.89808777 37.8190049 10.17382812 39.16625977 C10.33371216 39.93237076 10.49359619 40.69848175 10.6583252 41.48780823 C11.08590723 44.63163987 11 47.82722459 11 51 C4.4 51 -2.2 51 -9 51 C-8.33804105 41.76015627 -6.42789848 32.850126 -4.5 23.8125 C-4.0158405 21.5268899 -3.53324053 19.24097149 -3.05310059 16.95451355 C-2.75627367 15.54260385 -2.45704307 14.13119638 -2.15490723 12.72041321 C-1.26163065 8.49105626 -0.56873555 4.28181572 0 0 Z " fill="#F6F6F6" transform="translate(572,134)"/>
<path d="M0 0 C2.2734531 2.2734531 2.43946085 3.19915823 3.05322266 6.27856445 C3.23325836 7.16320877 3.41329407 8.04785309 3.5987854 8.95930481 C3.78532684 9.91761703 3.97186829 10.87592926 4.1640625 11.86328125 C4.36099701 12.84741501 4.55793152 13.83154877 4.76083374 14.84550476 C5.17626518 16.93037195 5.58791522 19.01599562 5.99609375 21.10229492 C6.62075954 24.29085489 7.2586165 27.4765599 7.8984375 30.66210938 C8.3002691 32.68734343 8.70133587 34.71272941 9.1015625 36.73828125 C9.2921524 37.69052078 9.48274231 38.64276031 9.67910767 39.62385559 C9.85283905 40.51795639 10.02657043 41.41205719 10.20556641 42.33325195 C10.35941803 43.11553665 10.51326965 43.89782135 10.67178345 44.70381165 C11 47 11 47 11 52 C4.4 52 -2.2 52 -9 52 C-8.35651368 41.08116065 -6.0813923 30.51356687 -3.9375 19.8125 C-3.55612497 17.88747188 -3.17526123 15.96234239 -2.79492188 14.03710938 C-1.86917547 9.3568827 -0.93650794 4.67808467 0 0 Z " fill="#F7F7F7" transform="translate(1264,134)"/>
<path d="M0 0 C0.66 0 1.32 0 2 0 C4.31 7.26 6.62 14.52 9 22 C3.72 22 -1.56 22 -7 22 C-6.02305321 18.70765943 -5.04354949 15.41611796 -4.0625 12.125 C-3.64581055 10.71927734 -3.64581055 10.71927734 -3.22070312 9.28515625 C-2.95322266 8.38925781 -2.68574219 7.49335938 -2.41015625 6.5703125 C-2.16402588 5.74289551 -1.91789551 4.91547852 -1.66430664 4.06298828 C-1 2 -1 2 0 0 Z " fill="#F3F3F3" transform="translate(985,277)"/>
</svg>
